<svg width="40" height="40" viewBox="0 0 40 40" fill="none" xmlns="http://www.w3.org/2000/svg">
<rect width="40" height="40" rx="15" fill="#FBE7E7"/>
<path d="M27.325 17.4683C27.325 17.4683 26.782 24.2033 26.467 27.0403C26.317 28.3953 25.48 29.1893 24.109 29.2143C21.5 29.2613 18.888 29.2643 16.28 29.2093C14.961 29.1823 14.138 28.3783 13.991 27.0473C13.674 24.1853 13.134 17.4683 13.134 17.4683" stroke="#FE554A" stroke-width="1.5" stroke-linecap="round" stroke-linejoin="round"/>
<path d="M28.7082 14.2397H11.7502" stroke="#FE554A" stroke-width="1.5" stroke-linecap="round" stroke-linejoin="round"/>
<path d="M25.4406 14.2397C24.6556 14.2397 23.9796 13.6847 23.8256 12.9157L23.5826 11.6997C23.4326 11.1387 22.9246 10.7507 22.3456 10.7507H18.1126C17.5336 10.7507 17.0256 11.1387 16.8756 11.6997L16.6326 12.9157C16.4786 13.6847 15.8026 14.2397 15.0176 14.2397" stroke="#FE554A" stroke-width="1.5" stroke-linecap="round" stroke-linejoin="round"/>
</svg>
