<svg width="77" height="77" viewBox="0 0 77 77" fill="none" xmlns="http://www.w3.org/2000/svg">
<path d="M0 13.2498L20 13.2503L66.5 53.2502L66.5 72.7505L0 13.2498Z" fill="#85BB72"/>
<path d="M22.4223 28.1292C21.9054 27.6772 21.5574 27.1737 21.3785 26.6188C21.209 26.0632 21.1991 25.4922 21.3488 24.9057C21.5029 24.3143 21.8169 23.7476 22.2909 23.2055C22.7604 22.6686 23.2758 22.2868 23.837 22.0602C24.4027 21.8286 24.9721 21.7597 25.5453 21.8536C26.1236 21.9519 26.6712 22.227 27.1881 22.679C27.7903 23.2057 28.1524 23.7791 28.2742 24.3993C28.4055 25.0189 28.2978 25.6332 27.9512 26.2422L27.2511 25.6301C27.4561 25.2336 27.5187 24.8279 27.4389 24.4127C27.3685 23.9969 27.1225 23.6047 26.701 23.2361C26.3246 22.907 25.9191 22.7074 25.4844 22.6373C25.0542 22.5621 24.6187 22.6197 24.1778 22.8098C23.7464 22.9994 23.3332 23.32 22.9383 23.7716C22.5433 24.2233 22.2785 24.6781 22.1438 25.136C22.0185 25.5932 22.0196 26.0325 22.147 26.4539C22.2789 26.8703 22.533 27.243 22.9094 27.5722C23.331 27.9408 23.7481 28.1373 24.1607 28.1616C24.5828 28.1853 24.9744 28.0717 25.3356 27.8207L26.0357 28.4329C25.4871 28.8476 24.897 29.0312 24.2654 28.9838C23.6389 28.9407 23.0245 28.6558 22.4223 28.1292ZM27.1176 32.235C26.7663 31.9278 26.5204 31.571 26.3798 31.1647C26.2391 30.7583 26.2133 30.3372 26.3022 29.9013C26.4005 29.4648 26.623 29.0483 26.9697 28.6518C27.3164 28.2554 27.6998 27.984 28.12 27.8377C28.5445 27.6865 28.9675 27.6534 29.389 27.7386C29.8154 27.8281 30.2043 28.0265 30.5556 28.3337C30.9069 28.6408 31.1529 28.9976 31.2935 29.404C31.4341 29.8103 31.4553 30.2317 31.3569 30.6683C31.268 31.1042 31.0502 31.5203 30.7035 31.9168C30.3569 32.3133 29.9713 32.5872 29.5467 32.7384C29.1266 32.8847 28.7033 32.9131 28.2768 32.8235C27.8553 32.7384 27.4689 32.5422 27.1176 32.235ZM27.5916 31.693C27.8074 31.8817 28.0542 32.0045 28.332 32.0615C28.6099 32.1185 28.8987 32.0921 29.1984 31.9822C29.4982 31.8724 29.7841 31.6619 30.0561 31.3507C30.3282 31.0396 30.4987 30.7281 30.5676 30.4164C30.6415 30.1091 30.6317 29.8215 30.5382 29.5538C30.4446 29.286 30.2925 29.06 30.0817 28.8757C29.8659 28.687 29.6191 28.5641 29.3412 28.5071C29.0634 28.4502 28.7746 28.4766 28.4748 28.5864C28.1751 28.6963 27.8892 28.9068 27.6171 29.2179C27.345 29.5291 27.1745 29.8405 27.1057 30.1522C27.0368 30.464 27.0466 30.7515 27.1351 31.0149C27.2286 31.2826 27.3808 31.5087 27.5916 31.693ZM29.875 34.4867L33.14 30.7529L33.7121 31.2532L33.2833 31.8347C33.5793 31.7393 33.8759 31.7241 34.1732 31.7892C34.4705 31.8544 34.7446 31.9966 34.9956 32.2161C35.2917 32.475 35.4924 32.7568 35.5979 33.0616C35.7084 33.3707 35.7138 33.6987 35.6142 34.0456C35.9422 33.9338 36.2761 33.9115 36.6161 33.9784C36.961 34.0498 37.2665 34.2018 37.5325 34.4344C37.9791 34.825 38.217 35.2721 38.246 35.7756C38.2794 36.2742 38.0525 36.802 37.5654 37.3591L35.6564 39.5422L35.0316 38.9958L36.8813 36.8805C37.2192 36.4941 37.396 36.135 37.4116 35.8032C37.4271 35.4714 37.2894 35.1783 36.9983 34.9237C36.6972 34.6604 36.3431 34.559 35.9361 34.6193C35.5385 34.679 35.151 34.9247 34.7736 35.3563L33.0819 37.2909L32.4496 36.738L34.2993 34.6226C34.6372 34.2362 34.8139 33.8771 34.8295 33.5454C34.8451 33.2136 34.7073 32.9204 34.4162 32.6659C34.1201 32.407 33.7686 32.3077 33.3616 32.368C32.964 32.4278 32.5765 32.6734 32.1991 33.105L30.5074 35.0397L29.875 34.4867ZM35.0855 41.9654L39.7986 36.5754L40.3708 37.0757L39.8912 37.7457C40.1696 37.6703 40.4829 37.6564 40.831 37.704C41.1841 37.7559 41.5338 37.9333 41.8801 38.2361C42.2514 38.5608 42.5005 38.9292 42.6273 39.3412C42.7542 39.7532 42.7634 40.173 42.655 40.6008C42.5517 41.0329 42.3355 41.4372 42.0063 41.8136C41.6772 42.19 41.3054 42.4582 40.8909 42.6183C40.4858 42.7777 40.0681 42.8198 39.6379 42.7447C39.2171 42.669 38.8209 42.4687 38.4496 42.144C38.1434 41.8763 37.9248 41.5744 37.7936 41.2383C37.6674 40.9066 37.6404 40.5729 37.7124 40.2374L35.7178 42.5183L35.0855 41.9654ZM38.8623 41.5352C39.1133 41.7546 39.3846 41.89 39.6762 41.9413C39.9722 41.9877 40.2676 41.9537 40.5623 41.8395C40.857 41.7252 41.1273 41.5276 41.373 41.2465C41.6188 40.9655 41.7786 40.6713 41.8525 40.364C41.9264 40.0567 41.9185 39.7619 41.8287 39.4797C41.7433 39.1925 41.5752 38.9392 41.3242 38.7198C41.0733 38.5004 40.7998 38.3675 40.5038 38.3212C40.2122 38.2698 39.919 38.3013 39.6243 38.4155C39.3295 38.5298 39.0593 38.7274 38.8136 39.0085C38.5678 39.2895 38.408 39.5837 38.3341 39.891C38.2602 40.1983 38.2659 40.4956 38.3513 40.7828C38.4411 41.065 38.6114 41.3158 38.8623 41.5352ZM41.1854 44.3769L45.9249 38.9568L46.5572 39.5097L41.8177 44.9298L41.1854 44.3769ZM44.3786 47.3285C44.0223 47.0169 43.7763 46.6602 43.6407 46.2582C43.5095 45.8512 43.4909 45.432 43.5848 45.0005C43.6838 44.5734 43.9066 44.1616 44.2533 43.7651C44.5956 43.3737 44.9718 43.1004 45.3819 42.9454C45.7964 42.7853 46.2118 42.7457 46.6283 42.8264C47.0542 42.9066 47.4503 43.1068 47.8166 43.4272C48.178 43.7432 48.4167 44.098 48.5329 44.4919C48.6584 44.885 48.6752 45.2761 48.5831 45.6649C48.491 46.0538 48.3111 46.4013 48.0435 46.7074C47.9952 46.7626 47.9444 46.8156 47.8911 46.8664C47.8428 46.9216 47.788 46.9844 47.7265 47.0546L44.753 44.4545C44.5179 44.7537 44.3747 45.0492 44.3234 45.3408C44.2815 45.6318 44.3066 45.9018 44.3989 46.1507C44.4962 46.4041 44.6452 46.6185 44.846 46.794C45.1069 47.0222 45.3779 47.1529 45.6589 47.1861C45.9399 47.2192 46.2104 47.168 46.4707 47.0325L47.0955 47.5788C46.6923 47.8373 46.2468 47.9569 45.7588 47.9377C45.2803 47.9178 44.8202 47.7147 44.3786 47.3285ZM47.3342 43.9485C47.0331 43.6852 46.6834 43.5433 46.2852 43.5227C45.8963 43.5015 45.5307 43.6512 45.1884 43.9718L47.5371 46.0255C47.8161 45.6761 47.9311 45.3117 47.882 44.9323C47.833 44.5529 47.6504 44.225 47.3342 43.9485ZM48.34 50.6331C47.9987 50.3347 47.8026 50.0171 47.7517 49.6803C47.7008 49.3436 47.8641 48.9594 48.2415 48.5278L50.0385 46.4727L49.3911 45.9066L49.8585 45.3721L50.5059 45.9382L51.372 45.1148L51.9216 45.5953L51.1382 46.4911L52.2373 47.4522L51.7699 47.9867L50.6709 47.0256L48.8738 49.0807C48.6676 49.3166 48.5748 49.5189 48.5956 49.6876C48.6207 49.8512 48.7537 50.0384 48.9946 50.249L49.3861 50.5913L48.9121 51.1334L48.34 50.6331ZM51.1972 53.2909C50.8409 52.9794 50.5949 52.6226 50.4594 52.2206C50.3281 51.8137 50.3095 51.3944 50.4034 50.9629C50.5024 50.5358 50.7252 50.124 51.0719 49.7275C51.4142 49.3361 51.7904 49.0628 52.2005 48.9078C52.615 48.7477 53.0305 48.7081 53.4469 48.7889C53.8728 48.869 54.2689 49.0692 54.6352 49.3896C54.9966 49.7056 55.2353 50.0605 55.3515 50.4543C55.477 50.8474 55.4938 51.2385 55.4017 51.6273C55.3096 52.0162 55.1298 52.3637 54.8621 52.6698C54.8138 52.725 54.763 52.778 54.7097 52.8288C54.6615 52.8841 54.6066 52.9468 54.5452 53.017L51.5716 50.4169C51.3366 50.7161 51.1934 51.0116 51.142 51.3032C51.1001 51.5942 51.1253 51.8642 51.2175 52.1131C51.3148 52.3665 51.4638 52.5809 51.6646 52.7565C51.9256 52.9847 52.1965 53.1153 52.4775 53.1485C52.7585 53.1816 53.0291 53.1304 53.2893 52.9949L53.9141 53.5412C53.5109 53.7997 53.0654 53.9194 52.5775 53.9001C52.0989 53.8802 51.6389 53.6771 51.1972 53.2909ZM54.1528 49.9109C53.8517 49.6476 53.502 49.5057 53.1038 49.4851C52.7149 49.4639 52.3494 49.6136 52.007 49.9342L54.3557 51.988C54.6347 51.6385 54.7497 51.2741 54.7006 50.8947C54.6516 50.5153 54.469 50.1874 54.1528 49.9109Z" fill="white"/>
</svg>
